<svg id="Ebene_1" data-name="Ebene 1" xmlns="http://www.w3.org/2000/svg" viewBox="0 0 841.9 495.6"><defs><style>.cls-1,.cls-2{fill:#fff;}.cls-1{fill-rule:evenodd;}</style></defs><path class="cls-1" d="M841.9,0H685.1V53.4h45.8V237.5H796V53.4h45.9V0ZM669.5,237.3H604.4V0h65.1V237.3Zm-76.1,0H521l-86.1-92.4v-53L518.3-.2h74.6L496.8,119.3l96.6,118Z"/><path class="cls-1" d="M233.7,86.8a230.8,230.8,0,0,0-31.5,49.5l217.1,101L233.7,86.8Z"/><path class="cls-1" d="M419.3,237.3,318.1,21.9a234.4,234.4,0,0,0-49.8,30.8l151,184.6Z"/><path class="cls-1" d="M419.3,237.3,419.5,0h-1.9a236.1,236.1,0,0,0-56.1,6.8l57.8,230.5Z"/><path class="cls-1" d="M186.6,179.2a237.2,237.2,0,0,0-7.5,58.1H419.3L186.6,179.2Z"/><path class="cls-1" d="M419.3,262.4h0l56.3,224.7a230.2,230.2,0,0,1-54.7,6.7H419l.3-231.4ZM600.2,409.1a225.1,225.1,0,0,0,30.7-48.2L419.3,262.4,600.2,409.1ZM419.3,262.4l98.7,210a231.3,231.3,0,0,0,48.5-30l-147.2-180ZM646.1,319a229.9,229.9,0,0,0,7.4-56.6H419.3L646.1,319Z"/><path class="cls-2" d="M45.2,460.1c0,19.7-6.8,35.5-29,35.5a50.8,50.8,0,0,1-16.2-3L.9,473c2.6.8,5.2,1.9,8.4,1.9,8.7,0,11.7-6.2,11.7-14.8V390.7H45.2Z"/><path class="cls-2" d="M114.5,470.7H82.1L75,493.8H51.7L86,390.7h26.5l33.1,103.1H120.8ZM99.1,410.5h-.3L86.5,453.3h23.2Z"/><path class="cls-2" d="M204.1,451H179v42.8H154.8V390.7H179v41.1h25.1V390.7h24.2V493.8H204.1Z"/><path class="cls-2" d="M246.3,390.7h37.8c17,0,31.5,7.5,31.5,26.6,0,4.3-.6,21.2-20.5,25.2v.3c7.5.9,10.5,5.1,14.3,17.3L320,493.8H294.6l-8-27.6c-3.9-14.1-7.2-14.1-16.1-14.1v41.7H246.3Zm23.4,44h7.5c9.3,0,14.2-6.2,14.2-13.6,0-4.3-1.4-13-14.4-13h-7.3Z"/><path class="cls-2" d="M332.4,390.7h59.5v18H355.8v23.1h34.4v18H355.8v26h37.9v18H332.4Z"/><path class="cls-2" d="M179.8,348.7l7.5-8.5c10.1-11.3,30.2-30.2,30.2-45.4,0-8.3-5.7-13.8-13.9-13.8-6.5,0-15.2,4.3-20.4,8.1l-1.6-21.4c10.7-3.2,19.8-5.9,30.4-5.9,16.2,0,29.7,11.5,29.7,29.1,0,21.4-22.6,45.1-32.2,54.2l-3.7,3.6h36.9v18H179.8Z"/><path class="cls-2" d="M286.6,261.8c27.4,0,33.9,24.5,33.9,53.3s-6.5,53.4-33.9,53.4-34-24.6-34-53.4S259.1,261.8,286.6,261.8Zm0,89.8c9.3,0,11.2-16.7,11.2-36.5s-1.9-36.4-11.2-36.4-11.3,16.6-11.3,36.4S277.3,351.6,286.6,351.6Z"/><path class="cls-2" d="M361.9,261.8c27.5,0,34,24.5,34,53.3s-6.5,53.4-34,53.4-34-24.6-34-53.4S334.4,261.8,361.9,261.8Zm0,89.8c9.3,0,11.2-16.7,11.2-36.5s-1.9-36.4-11.2-36.4-11.2,16.6-11.2,36.4S352.6,351.6,361.9,351.6Z"/></svg>